<mxfile host="app.diagrams.net" modified="2023-10-23T17:01:08.176Z" agent="Mozilla/5.0 (Macintosh; Intel Mac OS X 10.15; rv:109.0) Gecko/20100101 Firefox/118.0" version="22.0.6" etag="qppeB7dYqWZy5TCFW30t" type="github">
  <diagram name="Page-1" id="ivsa87dk_SB0JotVVFdU">
    <mxGraphModel>
      <root>
        <mxCell id="0" />
        <mxCell id="1" parent="0" />
      </root>
    </mxGraphModel>
  </diagram>
</mxfile>
